<?xml version="1.0" encoding="utf-8"?>
<!-- Svg Vector Icons : http://www.onlinewebfonts.com/icon -->
<!DOCTYPE svg PUBLIC "-//W3C//DTD SVG 1.1//EN" "http://www.w3.org/Graphics/SVG/1.1/DTD/svg11.dtd">
<svg version="1.1" xmlns="http://www.w3.org/2000/svg" xmlns:xlink="http://www.w3.org/1999/xlink" x="0px" y="0px" viewBox="0 0 1000 1000" enable-background="new 0 0 1000 1000" xml:space="preserve">
<metadata> Svg Vector Icons : http://www.onlinewebfonts.com/icon </metadata>
<g><g transform="translate(0.000000,511.000000) scale(0.100000,-0.100000)"><path d="M1561.1,3647.6c-21.7-21.7-39.5-65.2-39.5-96.8c0-75.1,954.6-2308.4,1002-2343.9c87-67.2,243.1,5.9,243.1,112.7c0,63.2-962.5,2312.3-1002,2343.9C1713.2,3700.9,1606.5,3693,1561.1,3647.6z"/><path d="M5067.1,3667.3c-25.7-9.9-292.5-456.5-776.7-1302.4c-405.1-707.5-747.1-1312.3-758.9-1345.9c-17.8-47.4-49.4-67.2-181.8-120.6C2628.3,615.9,1869.4,137.6,1209.3-447.4c-195.7-173.9-260.9-255-260.9-320.2c0-77.1,417-434.8,836-721.4c164-110.7,211.5-152.2,201.6-175.9c-5.9-19.8-211.5-385.4-454.6-816.2c-466.4-822.1-486.2-865.6-405.1-946.7c39.5-39.5,65.2-39.5,4011.9-39.5h3970.4l41.5,43.5c21.7,23.7,39.5,67.2,39.5,94.9c0,31.6-185.8,377.5-464.4,869.6c-255,448.6-462.5,818.2-460.5,820.2c4,2,77.1,51.4,164,108.7c403.2,268.8,869.6,656.2,891.3,741.1c17.8,75.1-37.5,148.2-258.9,345.9c-662.1,587-1472.4,1094.9-2160.1,1353.8c-118.6,43.5-148.2,63.2-170,114.6c-61.3,146.3-1460.5,2577.1-1505.9,2618.6C5173.8,3689.1,5136.2,3695,5067.1,3667.3z M5756.8,2125.8C6077,1566.5,6337.8,1106,6335.8,1104c-3.9-3.9-100.8,15.8-219.4,43.5c-656.2,148.2-1432.8,140.3-2043.5-17.8c-69.2-19.8-128.5-29.6-132.4-25.7c-5.9,4,260.9,480.3,589,1057.3c515.8,903.2,602.8,1045.5,622.5,1015.8C5165.9,3157.4,5438.6,2685.1,5756.8,2125.8z M6329.9,772C6903,608,7612.6,256.2,8181.7-147c211.5-150.2,523.7-395.3,670-527.7l88.9-79.1l-138.4-112.7C8075-1467.2,7084.9-1981,6244.9-2194.5c-142.3-35.6-513.8-104.7-513.8-94.9c0,2,47.4,27.7,106.7,53.4c373.5,171.9,703.6,511.9,865.6,893.3c96.8,231.2,122.5,373.5,122.5,672c-2,243.1-7.9,298.4-55.4,454.6c-132.4,436.8-415,794.5-796.5,1009.9c-90.9,51.4-164,94.9-164,96.8C5810.1,900.5,6152.1,823.4,6329.9,772z M4298.3,799.7c-306.3-179.8-527.7-411.1-681.8-719.4c-136.4-268.8-179.8-452.6-181.8-751c-2-371.5,81-658.1,282.6-958.5c170-255,371.5-430.8,662.1-583l136.4-71.2l-98.8,11.9c-268.8,31.6-772.7,179.8-1164.1,339.9c-573.1,233.2-1292.5,664-1778.7,1065.2l-138.3,112.7l94.9,85C2065-93.6,2922.7,420.2,3705.4,696.9c160.1,57.3,634.4,181.8,691.7,183.8C4418.8,880.7,4375.3,845.1,4298.3,799.7z M5482.1,663.3c494.1-126.5,893.3-537.6,1011.9-1041.5c49.4-213.4,31.6-543.5-45.4-758.9c-339.9-976.3-1571.2-1258.9-2300.4-531.6c-758.9,758.9-409.1,2051.4,634.4,2334C4964.3,714.7,5284.5,714.7,5482.1,663.3z M2434.6-1890.1c642.3-365.6,1466.4-642.3,2170-727.3c207.5-23.7,796.4-31.6,980.3-9.9c768.8,87,1581,351.8,2258.9,739.1c81,45.5,150.2,77.1,154.2,73.1c21.7-19.8,756.9-1324.1,756.9-1340c0-7.9-1632.4-15.8-3626.5-15.8H1499.8l23.7,45.4c39.5,73.1,691.7,1225.3,721.4,1274.7c15.8,23.7,31.6,43.5,35.6,43.5C2284.4-1807.1,2353.6-1844.7,2434.6-1890.1z"/><path d="M4940.6,181.1c-136.4-37.5-253-104.8-361.7-205.5c-189.7-177.9-270.8-365.6-270.8-626.5c0-201.6,37.5-328.1,142.3-484.2c292.5-438.8,921-506,1306.3-140.3c122.5,116.6,197.6,243.1,241.1,407.1c47.4,187.8,39.5,272.7-33.6,357.7l-63.2,71.2l-136.4-11.9c-164-15.8-278.7,11.9-320.2,75.1c-31.6,47.4-39.5,140.3-29.6,320.2C5426.8,167.2,5235,262.1,4940.6,181.1z M5102.6-261.6c17.8-306.3,203.6-494.1,494.1-498c51.4,0,96.8-7.9,102.8-15.8c15.8-25.7-57.3-170-126.5-249c-104.7-116.6-241.1-177.9-405.1-177.9c-298.4,0-521.7,199.6-557.3,498c-25.7,215.4,114.6,454.6,320.2,549.4C5086.8-81.8,5092.7-83.7,5102.6-261.6z"/><path d="M8235.1,3663.4c-39.5-31.6-1002-2280.7-1002-2343.9c0-61.3,85-142.3,148.2-142.3c27.7,0,67.2,11.9,88.9,25.7c49.4,29.6,1007.9,2262.9,1007.9,2347.9c0,31.6-17.8,75.1-39.5,96.8C8393.2,3693,8286.5,3700.9,8235.1,3663.4z"/><path d="M879.2,1977.6c-98.8-96.8-88.9-112.7,434.8-747c347.8-421,500-590.9,537.6-598.8c104.7-27.7,205.5,81,177.9,191.7c-11.9,43.5-919,1156.1-970.4,1187.8C1013.6,2042.8,926.7,2027,879.2,1977.6z"/><path d="M8938.7,2011.2c-11.9-7.9-235.2-272.7-498-587c-426.9-515.8-474.3-581-476.3-646.3c0-132.4,146.3-199.6,245.1-108.7c27.7,23.7,254.9,292.5,505.9,596.9c492.1,596.9,502,616.6,405.1,711.5C9073,2027,8986.1,2042.8,8938.7,2011.2z"/><path d="M140.1,651.4c-51.4-65.2-53.4-128.5-5.9-183.8c37.6-49.4,875.5-417,946.7-417c104.7,0,175.9,146.2,110.7,233.2c-47.4,63.2-849.8,419-948.6,419C199.4,702.8,167.7,687,140.1,651.4z"/><path d="M9260.8,517.1c-442.7-193.7-504-237.2-478.3-336c17.8-71.1,81-130.4,138.4-130.4c69.2,0,905.1,369.6,946.6,417c45.4,55.3,43.5,118.6-7.9,183.8C9794.4,736.4,9719.3,718.6,9260.8,517.1z"/></g></g>
</svg>