<?xml version="1.0" encoding="UTF-8"?>
<svg width="212px" height="212px" viewBox="0 0 212 212" version="1.1" xmlns="http://www.w3.org/2000/svg" xmlns:xlink="http://www.w3.org/1999/xlink">
    <!-- Generator: Sketch 63.1 (92452) - https://sketch.com -->
    <title>sun</title>
    <desc>Created with Sketch.</desc>
    <g id="sun" stroke="none" stroke-width="1" fill="none" fill-rule="evenodd">
        <g id="Group" transform="translate(-4.000000, -4.000000)">
            <path d="M91.2790792,185.772953 L81.5328004,191.878662 C78.2448384,193.938457 73.9096244,192.942831 71.849829,189.654869 C71.4338336,188.990834 71.1318629,188.261881 70.9564211,187.498195 L68.3792413,176.279914 C65.4525104,163.540061 55.5052938,153.591594 42.7658093,150.663261 L31.5547285,148.086252 C27.7734601,147.21708 25.41274,143.447152 26.2819126,139.665884 C26.4572471,138.903105 26.7588147,138.174987 27.1741566,137.511613 L33.2808995,127.758068 C40.2193325,116.676168 40.2193325,102.604919 33.2808995,91.5230185 L27.1741566,81.7694737 C25.1152132,78.480978 26.1119621,74.1460221 29.4004578,72.0870787 C30.0638319,71.6717369 30.7919494,71.3701692 31.5547285,71.1948347 L42.7658093,68.6178253 C55.5052938,65.6894929 65.4525104,55.7410257 68.3792413,43.0011731 L70.9564211,31.7828916 C71.8251183,28.001514 75.5947488,25.64032 79.3761265,26.5090172 C80.1398119,26.6844589 80.868765,26.9864296 81.5328004,27.4024251 L91.2790792,33.5081342 C102.356816,40.4479561 116.425959,40.4479561 127.503696,33.5081342 L137.249974,27.4024251 C140.537936,25.3426297 144.87315,26.3382555 146.932946,29.6262176 C147.348941,30.2902531 147.650912,31.0192061 147.826354,31.7828916 L150.403534,43.0011731 C153.330264,55.7410257 163.277481,65.6894929 176.016966,68.6178253 L187.228046,71.1948347 C191.009315,72.0640073 193.370035,75.8339346 192.500862,79.615203 C192.325528,80.3779821 192.02396,81.1060995 191.608618,81.7694737 L185.501875,91.5230185 C178.563442,102.604919 178.563442,116.676168 185.501875,127.758068 L191.608618,137.511613 C193.667562,140.800109 192.670813,145.135065 189.382317,147.194008 C188.718943,147.60935 187.990825,147.910918 187.228046,148.086252 L176.016966,150.663261 C163.277481,153.591594 153.330264,163.540061 150.403534,176.279914 L147.826354,187.498195 C146.957656,191.279573 143.188026,193.640767 139.406648,192.77207 C138.642963,192.596628 137.91401,192.294657 137.249974,191.878662 L127.503696,185.772953 C116.425959,178.833131 102.356816,178.833131 91.2790792,185.772953 Z" id="Star" fill="#FFBC00" transform="translate(109.391387, 109.640543) rotate(-23.000000) translate(-109.391387, -109.640543) "></path>
            <ellipse id="Oval" fill="#FFD900" cx="110.651203" cy="110.900722" rx="56.6917213" ry="56.7080495"></ellipse>
        </g>
    </g>
</svg>
